<svg xmlns="http://www.w3.org/2000/svg" version="1.1" xmlns:xlink="http://www.w3.org/1999/xlink" xmlns:svgjs="http://svgjs.dev/svgjs" width="67.43" height="99.21"><svg id="SvgjsSvg1003" data-name="Capa 2" xmlns="http://www.w3.org/2000/svg" viewBox="0 0 67.43 99.21">
  <defs>
    <style>
      .cls-1 {
        fill: none;
        stroke: #1d1d1b;
        stroke-miterlimit: 10;
        stroke-width: 1.13px;
      }

      .cls-2 {
        fill: #1d1d1b;
      }
    </style>
  </defs>
  <g id="SvgjsG1002" data-name="Capa 1">
    <g>
      <g>
        <path class="cls-2" d="m.09,96.31h.84v-6.79l-.93-.56h4.16l-.93.56v6.79h.84v.17H.09v-.17Z"></path>
        <path class="cls-2" d="m10.11,91.36l-.7.51-2.33,4.76h-.27l-2.21-4.76-.7-.51h3.65l-.7.51,1.02,2.81,1.01-2.81-.73-.51h1.96Z"></path>
        <path class="cls-2" d="m14.96,96.31v.17h-2.61v-.6c-.49.42-1.05.7-1.62.7-.68,0-1.14-.39-1.14-1.05,0-.96,1.02-1.6,2.76-1.79,0-1.15-.46-1.72-1.25-1.72-.47,0-.79.13-1.15.4l-.05-.05c.71-.79,1.48-1.22,2.53-1.22,1.32,0,2.02.75,2.02,2.27v2.89h.52Zm-2.61-.58v-1.85c-.63.18-.87.58-.87,1.13,0,.49.21.75.63.75.06,0,.15-.01.24-.03Zm-.48-4.79h-.01l.37-2.19h2.2s-2.56,2.19-2.56,2.19Z"></path>
        <path class="cls-2" d="m21.83,96.31v.17h-3.03v-.17h.42v-3.15c0-.82-.2-1.09-.63-1.09-.21,0-.42.06-.63.16v4.08h.42v.17h-3.03v-.17h.52v-3.81l-.6-.51,2.69-.94v1.05c.68-.59,1.28-.99,2-.99.89,0,1.35.55,1.35,1.62v3.59h.52Z"></path>
        <path class="cls-2" d="m30.62,91.36l-.7.51-2.27,4.61-1.24,2.73-1.98-1.39,3.04-1.39-2.47-4.56-.71-.51h3.67l-.7.51,1.16,2.75.98-2.75-.8-.51h2.03Z"></path>
        <path class="cls-2" d="m40.99,96.31v.17h-3.84v-.17h.86l-.83-1.96h-2.4l-.64,1.96h1.08v.17h-2.31v-.17h.43l3.32-7.56h.54l3.31,7.56h.48Zm-3.9-2.15l-1.28-3.03-.98,3.03h2.27Z"></path>
        <path class="cls-2" d="m41.18,96.31h.52v-3.81l-.6-.51,2.69-.94v5.27h.52v.17h-3.13v-.17Zm.41-6.61c0-.69.42-1.16,1.16-1.16s1.16.47,1.16,1.16-.42,1.17-1.16,1.17-1.16-.47-1.16-1.17Z"></path>
        <path class="cls-2" d="m49.13,95.52c-.39.62-1.08,1.07-2.04,1.07-1.24,0-1.73-.73-1.73-2.09v-2.97h-.81s2.89-2.29,2.89-2.29v2.12h1.47v.17h-1.47v2.43c0,1.21.28,1.66,1.05,1.66.23,0,.41-.03.62-.11h.01Z"></path>
        <path class="cls-2" d="m54.61,96.31v.17h-2.61v-.6c-.49.42-1.04.7-1.62.7-.68,0-1.14-.39-1.14-1.05,0-.96,1.02-1.6,2.76-1.79,0-1.15-.46-1.72-1.25-1.72-.47,0-.79.13-1.15.4l-.05-.05c.71-.79,1.48-1.22,2.53-1.22,1.32,0,2.02.75,2.02,2.27v2.89h.52Zm-2.61-.58v-1.85c-.63.18-.87.58-.87,1.13,0,.49.21.75.63.75.06,0,.15-.01.24-.03Z"></path>
        <path class="cls-2" d="m61.47,96.31v.17h-3.03v-.17h.42v-3.15c0-.82-.2-1.09-.63-1.09-.21,0-.42.06-.63.16v4.08h.42v.17h-3.03v-.17h.52v-3.81l-.6-.51,2.69-.94v1.05c.68-.59,1.29-.99,2-.99.89,0,1.35.55,1.35,1.62v3.59h.52Z"></path>
        <path class="cls-2" d="m67.19,96.31v.17h-2.61v-.6c-.49.42-1.04.7-1.62.7-.68,0-1.14-.39-1.14-1.05,0-.96,1.02-1.6,2.76-1.79,0-1.15-.46-1.72-1.25-1.72-.47,0-.79.13-1.15.4l-.05-.05c.71-.79,1.48-1.22,2.53-1.22,1.32,0,2.02.75,2.02,2.27v2.89h.52Zm-2.61-.58v-1.85c-.63.18-.87.58-.87,1.13,0,.49.21.75.63.75.06,0,.15-.01.24-.03Z"></path>
      </g>
      <g>
        <path class="cls-2" d="m45.54,39.61h4.5V3.04l-5.01-3.04h22.39l-5.01,3.04v36.57h4.5v.9h-21.38v-.9Z"></path>
        <path class="cls-2" d="m43.81,77.31v.9h-20.7v-.9h4.61l-4.44-10.58h-12.94l-3.43,10.58h5.8v.9H.27v-.9h2.31l17.89-40.73h2.93l17.83,40.73h2.59Zm-20.99-11.59l-6.92-16.32-5.29,16.32h12.21Z"></path>
        <line class="cls-1" x1="54.59" y1="80.62" x2="28.6" y2="20.49"></line>
      </g>
    </g>
  </g>
</svg><style>@media (prefers-color-scheme: light) { :root { filter: none; } }
@media (prefers-color-scheme: dark) { :root { filter: none; } }
</style></svg>