<?xml version="1.0" encoding="UTF-8"?>
<svg id="Capa_2" data-name="Capa 2" xmlns="http://www.w3.org/2000/svg" viewBox="0 0 91.1 97.98">
  <defs>
    <style>
      .cls-1 {
        fill: #1d1d1b;
      }

      .cls-2 {
        fill: none;
        stroke: #1d1d1b;
        stroke-miterlimit: 10;
        stroke-width: .62px;
      }
    </style>
  </defs>
  <g id="Capa_1-2" data-name="Capa 1">
    <g>
      <path class="cls-1" d="m85.29,69.35l5.82,1.92-5.88,8.05h-.02s.09-9.97.09-9.97Zm-3.06,12.73c.38-1.16,1.36-1.64,2.48-1.27s1.62,1.33,1.24,2.5-1.36,1.64-2.48,1.27-1.62-1.33-1.24-2.49Z"/>
      <g>
        <g>
          <path class="cls-1" d="m22.24,97.98c-1.45,0-2.43-1.34-2.43-3.34s.98-3.34,2.43-3.34,2.43,1.34,2.43,3.34-.98,3.34-2.43,3.34Zm0-.5c1.11,0,1.87-1.15,1.87-2.84s-.76-2.84-1.87-2.84-1.87,1.15-1.87,2.84.76,2.84,1.87,2.84Z"/>
          <path class="cls-1" d="m30.71,95.79c0,1.28-.99,2.19-2.33,2.19-.75,0-1.53-.3-2.04-.85-.09-.1-.14-.24-.03-.33l.08-.06c.11-.1.23-.08.33.03.42.48,1.03.7,1.62.7,1.04,0,1.8-.7,1.8-1.68s-.67-1.66-1.72-1.66c-.63,0-1.16.26-1.48.59-.09.1-.22.15-.35.1l-.05-.02c-.13-.07-.15-.2-.12-.34l.43-2.83c.02-.11.07-.21.22-.21h2.91c.14,0,.21.07.21.21v.11c0,.13-.07.2-.21.2h-2.63l-.33,2.12c.46-.3.96-.44,1.47-.44,1.35,0,2.22.91,2.22,2.17Z"/>
          <path class="cls-1" d="m32.28,97.49c0-.27.22-.49.49-.49s.49.22.49.49-.22.5-.49.5-.49-.22-.49-.5Z"/>
          <path class="cls-1" d="m37.2,97.98c-1.45,0-2.43-1.34-2.43-3.34s.98-3.34,2.43-3.34,2.43,1.34,2.43,3.34-.98,3.34-2.43,3.34Zm0-.5c1.11,0,1.87-1.15,1.87-2.84s-.76-2.84-1.87-2.84-1.87,1.15-1.87,2.84.76,2.84,1.87,2.84Z"/>
          <path class="cls-1" d="m44.79,91.59v.05s0,.1-.05.19l-2.57,5.84c-.07.14-.13.2-.27.2h-.17c-.12,0-.22-.11-.15-.25l2.51-5.67h-3.21c-.13,0-.21-.07-.21-.2v-.11c0-.14.08-.21.21-.21h3.7c.13,0,.21.06.21.16Z"/>
          <path class="cls-1" d="m45.46,97.49c0-.27.22-.49.49-.49s.49.22.49.49-.22.5-.49.5-.49-.22-.49-.5Z"/>
          <path class="cls-1" d="m52.24,97.59v.08c0,.13-.07.2-.21.2h-3.82c-.14,0-.21-.07-.21-.21v-.06c0-.1.04-.18.14-.27.75-.74,1.46-1.47,2.1-2.14.8-.84,1.17-1.45,1.17-2.08,0-.8-.57-1.3-1.39-1.3-.64,0-1.11.29-1.5.73-.11.13-.25.12-.35.02l-.04-.03c-.09-.1-.08-.24.02-.35.47-.5,1.04-.88,1.89-.88,1.13,0,1.92.7,1.92,1.79,0,.72-.41,1.41-1.21,2.29-.51.55-1.14,1.2-1.94,1.99h3.22c.14,0,.21.08.21.21Z"/>
          <path class="cls-1" d="m58.17,95.79c0,1.28-.99,2.19-2.33,2.19-.75,0-1.53-.3-2.04-.85-.09-.1-.14-.24-.03-.33l.08-.06c.11-.1.23-.08.33.03.42.48,1.03.7,1.62.7,1.04,0,1.8-.7,1.8-1.68s-.67-1.66-1.72-1.66c-.63,0-1.16.26-1.48.59-.09.1-.22.15-.35.1l-.05-.02c-.13-.07-.15-.2-.12-.34l.43-2.83c.02-.11.07-.21.22-.21h2.91c.14,0,.21.07.21.21v.11c0,.13-.07.2-.21.2h-2.63l-.33,2.12c.46-.3.96-.44,1.47-.44,1.35,0,2.22.91,2.22,2.17Z"/>
        </g>
        <g>
          <path class="cls-1" d="m30.66,25.44v.56h-10.23v-.56h1.41v-10.61c0-2.75-.67-3.67-2.12-3.67-.7,0-1.41.21-2.12.53v13.75h1.41v.56h-10.23v-.56h1.76v-12.87l-2.01-1.73,9.06-3.17v3.53c2.29-1.97,4.34-3.35,6.73-3.35,3,0,4.55,1.87,4.55,5.47v12.13h1.76Z"/>
          <path class="cls-1" d="m32.18,17.09c0-5.04,3.95-9.06,9.7-9.06s10.01,3.53,10.01,9.06c0,5.15-3.28,9.27-9.98,9.27-5.08,0-9.73-3.6-9.73-9.27Zm15.13,6.21c0-2.96-5.92-14-9.03-14-.88,0-1.41.63-1.41,1.73,0,3.46,6.1,14.07,8.99,14.07.95,0,1.45-.6,1.45-1.8Z"/>
          <path class="cls-1" d="m53.83,25.44l1.09-5.75h.04l4.37,5.85c.49.14.74.18,1.16.18,1.55,0,2.61-.81,2.61-2.26,0-1.06-.63-1.66-2.12-2.43l-2.33-1.23c-2.93-1.55-4.34-3.21-4.34-5.89,0-3.56,2.89-5.89,7.58-5.89,2.29,0,4.13.39,5.85,1.02l-1.38,5.57h-.04l-4.09-5.82c-.18-.07-.42-.11-.6-.11-1.55,0-2.33.88-2.33,1.87,0,1.23.56,2.12,2.64,3.21l2.64,1.41c2.43,1.3,3.7,3.07,3.7,5.25,0,3.67-3.7,5.92-8.04,5.92-1.66,0-3.98-.18-6.45-.92Z"/>
        </g>
        <g>
          <path class="cls-1" d="m7.66,34.99c.04-5.18,3.74-9.52,9.73-9.52,2.01,0,3.77.28,6.06,1.13l-1.37,9.84h-.04c-3.28-6.21-6.35-9.59-8.46-9.59-.88,0-1.41.63-1.41,1.9,0,5.68,5.57,11.67,10.54,11.67.46,0,.74-.04,1.06-.14l.04.04c-1.59,2.4-4.16,3.49-7.3,3.49-4.8,0-8.89-3.39-8.85-8.82Z"/>
          <path class="cls-1" d="m43.2,42.89v.56h-8.82v-2.01c-1.66,1.41-3.53,2.36-5.47,2.36-2.29,0-3.84-1.3-3.84-3.53,0-3.24,3.46-5.39,9.31-6.03,0-3.88-1.55-5.82-4.23-5.82-1.59,0-2.68.42-3.88,1.34l-.18-.18c2.4-2.68,5.01-4.13,8.53-4.13,4.44,0,6.81,2.54,6.81,7.65v9.77h1.76Zm-8.82-1.94v-6.24c-2.12.6-2.93,1.94-2.93,3.81,0,1.66.7,2.54,2.12,2.54.21,0,.49-.04.81-.11Z"/>
        </g>
        <g>
          <path class="cls-1" d="m32.26,60.34l1.09-5.75h.04l4.37,5.85c.49.14.74.18,1.16.18,1.55,0,2.61-.81,2.61-2.26,0-1.06-.63-1.66-2.12-2.43l-2.33-1.23c-2.93-1.55-4.34-3.21-4.34-5.89,0-3.56,2.89-5.89,7.58-5.89,2.29,0,4.13.39,5.85,1.02l-1.38,5.57h-.04l-4.09-5.82c-.18-.07-.42-.11-.6-.11-1.55,0-2.33.88-2.33,1.87,0,1.23.56,2.12,2.64,3.21l2.64,1.41c2.43,1.3,3.7,3.07,3.7,5.25,0,3.67-3.7,5.92-8.04,5.92-1.66,0-3.98-.18-6.45-.92Z"/>
          <path class="cls-1" d="m65.93,60.34v.56h-8.82v-2.01c-1.66,1.41-3.53,2.36-5.47,2.36-2.29,0-3.84-1.3-3.84-3.53,0-3.24,3.46-5.39,9.31-6.03,0-3.88-1.55-5.82-4.23-5.82-1.59,0-2.68.42-3.88,1.34l-.18-.18c2.4-2.68,5.01-4.13,8.53-4.13,4.44,0,6.81,2.54,6.81,7.65v9.77h1.76Zm-8.82-1.94v-6.24c-2.12.6-2.93,1.94-2.93,3.81,0,1.66.7,2.54,2.12,2.54.21,0,.49-.04.81-.11Z"/>
        </g>
        <g>
          <path class="cls-1" d="m41.05,77.78v.56h-10.23v-.56h1.41v-10.61c0-2.75-.42-3.67-1.94-3.67-.74,0-1.48.18-2.19.53.07.49.11,1.02.11,1.62v12.13h1.41v.56h-9.87v-.56h1.41v-10.61c0-2.75-.42-3.67-1.94-3.67-.71,0-1.41.14-2.08.46v13.82h1.41v.56h-10.23v-.56h1.76v-12.87l-2.01-1.73,9.06-3.17v3.53c2.86-2.29,4.73-3.35,6.7-3.35,2.4,0,3.74,1.2,4.2,3.49,2.96-2.4,4.87-3.49,6.88-3.49,3,0,4.37,1.87,4.37,5.47v12.13h1.76Z"/>
          <path class="cls-1" d="m42.56,69.43c0-5.04,3.95-9.06,9.7-9.06s10.01,3.53,10.01,9.06c0,5.15-3.28,9.27-9.98,9.27-5.08,0-9.73-3.6-9.73-9.27Zm15.13,6.21c0-2.96-5.92-14-9.03-14-.88,0-1.41.63-1.41,1.73,0,3.46,6.1,14.07,8.99,14.07.95,0,1.45-.6,1.45-1.8Z"/>
          <path class="cls-1" d="m64.21,77.78l1.09-5.75h.04l4.37,5.85c.49.14.74.18,1.16.18,1.55,0,2.61-.81,2.61-2.26,0-1.06-.63-1.66-2.12-2.43l-2.33-1.23c-2.93-1.55-4.34-3.21-4.34-5.89,0-3.56,2.89-5.89,7.58-5.89,2.29,0,4.13.39,5.85,1.02l-1.37,5.57h-.04l-4.09-5.82c-.18-.07-.42-.11-.6-.11-1.55,0-2.33.88-2.33,1.87,0,1.23.56,2.12,2.64,3.21l2.64,1.41c2.43,1.3,3.7,3.07,3.7,5.25,0,3.67-3.7,5.92-8.04,5.92-1.66,0-3.99-.18-6.45-.92Z"/>
        </g>
        <line class="cls-2" x1="48.61" y1="27.72" x2="35.74" y2="6.01"/>
        <line class="cls-2" x1="59.06" y1="80.2" x2="46.19" y2="58.5"/>
        <path class="cls-1" d="m5.82,15.35l-5.82-1.92L5.88,5.37h.02s-.09,9.97-.09,9.97Zm3.06-12.73c-.38,1.16-1.36,1.64-2.48,1.27s-1.62-1.33-1.24-2.5S6.51-.25,7.64.12s1.62,1.33,1.24,2.49Z"/>
      </g>
    </g>
  </g>
</svg>